<?xml version="1.0" encoding="UTF-8"?>
<svg width="24px" height="24px" viewBox="0 0 24 24" version="1.1" xmlns="http://www.w3.org/2000/svg" xmlns:xlink="http://www.w3.org/1999/xlink">
    <!-- Generator: Sketch 52.2 (67145) - http://www.bohemiancoding.com/sketch -->
    <title>Sketch/Page/Default</title>
    <desc>Created with Sketch.</desc>
    <defs>
        <path d="M1,3.00585866 L1,12.9941413 C1,14.1029399 1.89805351,15 3.00585866,15 L12.9941413,15 C14.1029399,15 15,14.1019465 15,12.9941413 L15,3.00585866 C15,1.89706013 14.1019465,1 12.9941413,1 L3.00585866,1 C1.89706013,1 1,1.89805351 1,3.00585866 Z M0,3.00585866 C0,1.34550213 1.34504186,0 3.00585866,0 L12.9941413,0 C14.6544979,0 16,1.34504186 16,3.00585866 L16,12.9941413 C16,14.6544979 14.6549581,16 12.9941413,16 L3.00585866,16 C1.34550213,16 0,14.6549581 0,12.9941413 L0,3.00585866 Z" id="path-1"></path>
        <path d="M0,1.0093689 C0,0.451909848 0.443353176,0 1.0093689,0 L2.9906311,0 C3.54809015,0 4,0.443353176 4,1.0093689 L4,2.9906311 C4,3.54809015 3.55664682,4 2.9906311,4 L1.0093689,4 C0.451909848,4 0,3.55664682 0,2.9906311 L0,1.0093689 Z M6,0.997030139 C6,0.446385598 6.44335318,0 7.0093689,0 L8.9906311,0 C9.54809015,0 10,0.453036308 10,0.997030139 L10,7.00296986 C10,7.5536144 9.55664682,8 8.9906311,8 L7.0093689,8 C6.45190985,8 6,7.54696369 6,7.00296986 L6,0.997030139 Z M0,7.0093689 C0,6.45190985 0.443353176,6 1.0093689,6 L2.9906311,6 C3.54809015,6 4,6.44335318 4,7.0093689 L4,8.9906311 C4,9.54809015 3.55664682,10 2.9906311,10 L1.0093689,10 C0.451909848,10 0,9.55664682 0,8.9906311 L0,7.0093689 Z" id="path-3"></path>
    </defs>
    <g id="Sketch/Page/Default" stroke="none" stroke-width="1" fill="none" fill-rule="evenodd">
        <g id="Group" opacity="0.5" transform="translate(4.000000, 4.000000)">
            <mask id="mask-2" fill="white">
                <use xlink:href="#path-1"></use>
            </mask>
            <use id="Mask" fill="#8B8E8F" fill-rule="nonzero" xlink:href="#path-1"></use>
            <g id="Dark" mask="url(#mask-2)" fill="#8B8E8F">
                <g transform="translate(-4.000000, -4.000000)">
                    <rect x="0" y="0" width="24" height="24"></rect>
                    <rect id="Color" stroke="none" fill-rule="evenodd" x="0" y="0" width="24" height="24"></rect>
                </g>
            </g>
        </g>
        <g id="Group-2" transform="translate(7.000000, 7.000000)">
            <mask id="mask-4" fill="white">
                <use xlink:href="#path-3"></use>
            </mask>
            <use id="Mask" fill="#8B8E8F" xlink:href="#path-3"></use>
            <g id="Dark" mask="url(#mask-4)" fill="#8B8E8F">
                <g transform="translate(-7.000000, -7.000000)">
                    <rect x="0" y="0" width="24" height="24"></rect>
                    <rect id="Color" stroke="none" fill-rule="evenodd" x="0" y="0" width="24" height="24"></rect>
                </g>
            </g>
        </g>
    </g>
</svg>